<svg width="48" height="39" viewBox="0 0 48 39" fill="none" xmlns="http://www.w3.org/2000/svg">
<path d="M27.0351 1.70981V16.976H45.7415V1.70981H27.0351ZM25.9875 0H46.7891C47.3378 0 47.7868 0.366388 47.7868 0.854906V17.7902C47.7868 18.2787 47.3378 18.6451 46.7891 18.6451H25.9875C25.3889 18.6451 24.94 18.2787 24.94 17.7902V0.854906C24.94 0.366388 25.3889 0 25.9875 0ZM2.09317 1.70981V16.976H20.7996V1.70981H2.09317ZM1.04561 0H21.8472C22.3959 0 22.8449 0.366388 22.8449 0.854906V17.7902C22.8449 18.2787 22.3959 18.6451 21.8472 18.6451H1.04561C0.447002 18.6451 -0.00195312 18.2787 -0.00195312 17.7902V0.854906C-0.00195312 0.366388 0.447002 0 1.04561 0ZM27.0351 22.0647V37.3309H45.7415V22.0647H27.0351ZM25.9875 20.3549H46.7891C47.3378 20.3549 47.7868 20.7213 47.7868 21.2098V38.1858C47.7868 38.6336 47.3378 39 46.7891 39H25.9875C25.3889 39 24.94 38.6336 24.94 38.1858V21.2098C24.94 20.7213 25.3889 20.3549 25.9875 20.3549ZM2.09317 22.0647V37.3309H20.7996V22.0647H2.09317ZM1.04561 20.3549H21.8472C22.3959 20.3549 22.8449 20.7213 22.8449 21.2098V38.1858C22.8449 38.6336 22.3959 39 21.8472 39H1.04561C0.447002 39 -0.00195312 38.6336 -0.00195312 38.1858V21.2098C-0.00195312 20.7213 0.447002 20.3549 1.04561 20.3549ZM10.2741 11.4395H14.7138L16.36 6.92067H8.67784L10.2741 11.4395ZM16.9586 5.3737C17.7567 5.3737 18.4052 5.90292 18.4052 6.55428C18.4052 6.67641 18.3553 6.75783 18.3553 6.87996L16.4597 12.0908C16.2602 12.62 15.7115 12.9457 15.063 12.9457H9.97482C9.32633 12.9457 8.72772 12.62 8.57807 12.0908L6.53283 6.39144V6.35073C6.38318 5.98434 6.23353 5.65866 5.93423 5.33299C5.78457 5.12944 5.63492 5.08873 5.48527 5.08873C4.93655 5.08873 4.53748 4.72234 4.53748 4.31524C4.53748 3.90814 4.93655 3.54175 5.48527 3.54175C6.3333 3.54175 7.03167 3.86743 7.48063 4.47808C7.73004 4.76305 7.92958 5.08873 8.07923 5.3737H16.9586ZM10.4737 15.3883C9.87505 15.3883 9.4261 14.9405 9.4261 14.452C9.4261 13.9635 9.92493 13.5157 10.4737 13.5157C11.0224 13.5157 11.5711 13.9228 11.5711 14.452C11.5711 14.9812 11.1221 15.3883 10.4737 15.3883ZM14.3646 15.3883C13.766 15.3883 13.317 14.9405 13.317 14.452C13.317 13.9635 13.8159 13.5157 14.3646 13.5157C14.9133 13.5157 15.462 13.9228 15.462 14.452C15.462 14.9812 14.9632 15.3883 14.3646 15.3883ZM35.216 11.4395H39.6557L41.3019 6.92067H33.6198L35.216 11.4395ZM41.9005 5.3737C42.6986 5.3737 43.3471 5.90292 43.3471 6.55428C43.3471 6.67641 43.2972 6.75783 43.2972 6.87996L41.4016 12.0908C41.2021 12.62 40.6534 12.9457 40.0049 12.9457H34.9167C34.2683 12.9457 33.6696 12.62 33.52 12.0908L31.4748 6.39144V6.35073C31.3251 5.98434 31.1755 5.65866 30.8762 5.33299C30.7265 5.12944 30.5768 5.08873 30.4272 5.08873C29.8785 5.08873 29.4794 4.72234 29.4794 4.31524C29.4794 3.90814 29.8785 3.54175 30.4272 3.54175C31.2752 3.54175 31.9736 3.86743 32.4226 4.47808C32.672 4.76305 32.8715 5.08873 33.0212 5.3737H41.9005ZM35.4156 15.3883C34.817 15.3883 34.368 14.9405 34.368 14.452C34.368 13.9635 34.8669 13.5157 35.4156 13.5157C35.9643 13.5157 36.513 13.9228 36.513 14.452C36.513 14.9812 36.0641 15.3883 35.4156 15.3883ZM39.3065 15.3883C38.7079 15.3883 38.259 14.9405 38.259 14.452C38.259 13.9635 38.7578 13.5157 39.3065 13.5157C39.8552 13.5157 40.404 13.9228 40.404 14.452C40.404 14.9812 39.9051 15.3883 39.3065 15.3883ZM10.2741 31.7944H14.7138L16.36 27.2756H8.67784L10.2741 31.7944ZM16.9586 25.7286C17.7567 25.7286 18.4052 26.2578 18.4052 26.9092C18.4052 27.0313 18.3553 27.1127 18.3553 27.2349L16.4597 32.4457C16.2602 32.9749 15.7115 33.3006 15.063 33.3006H9.97482C9.32633 33.3006 8.72772 32.9749 8.57807 32.4457L6.53283 26.7463V26.7056C6.38318 26.3392 6.23353 26.0136 5.93423 25.6879C5.78457 25.4843 5.63492 25.4436 5.48527 25.4436C4.93655 25.4436 4.53748 25.0772 4.53748 24.6701C4.53748 24.2223 4.93655 23.8967 5.48527 23.8967C6.3333 23.8967 7.03167 24.2223 7.48063 24.833C7.73004 25.118 7.92958 25.4436 8.07923 25.7286H16.9586ZM10.4737 35.7432C9.87505 35.7432 9.4261 35.3361 9.4261 34.8069C9.4261 34.2777 9.92493 33.8706 10.4737 33.8706C11.0224 33.8706 11.5711 34.2777 11.5711 34.8069C11.5711 35.3361 11.1221 35.7432 10.4737 35.7432ZM14.3646 35.7432C13.766 35.7432 13.317 35.3361 13.317 34.8069C13.317 34.2777 13.8159 33.8706 14.3646 33.8706C14.9133 33.8706 15.462 34.2777 15.462 34.8069C15.462 35.3361 14.9632 35.7432 14.3646 35.7432ZM35.216 31.7944H39.6557L41.3019 27.2756H33.6198L35.216 31.7944ZM41.9005 25.7286C42.6986 25.7286 43.3471 26.2578 43.3471 26.9092C43.3471 27.0313 43.2972 27.1127 43.2972 27.2349L41.4016 32.4457C41.2021 32.9749 40.6534 33.3006 40.0049 33.3006H34.9167C34.2683 33.3006 33.6696 32.9749 33.52 32.4457L31.4748 26.7463V26.7056C31.3251 26.3392 31.1755 26.0136 30.8762 25.6879C30.7265 25.4843 30.5768 25.4436 30.4272 25.4436C29.8785 25.4436 29.4794 25.0772 29.4794 24.6701C29.4794 24.2223 29.8785 23.8967 30.4272 23.8967C31.2752 23.8967 31.9736 24.2223 32.4226 24.833C32.672 25.118 32.8715 25.4436 33.0212 25.7286H41.9005ZM35.4156 35.7432C34.817 35.7432 34.368 35.3361 34.368 34.8069C34.368 34.2777 34.8669 33.8706 35.4156 33.8706C35.9643 33.8706 36.513 34.2777 36.513 34.8069C36.513 35.3361 36.0641 35.7432 35.4156 35.7432ZM39.3065 35.7432C38.7079 35.7432 38.259 35.3361 38.259 34.8069C38.259 34.2777 38.7578 33.8706 39.3065 33.8706C39.8552 33.8706 40.404 34.2777 40.404 34.8069C40.404 35.3361 39.9051 35.7432 39.3065 35.7432Z" fill="white"/>
</svg>
