<svg width="36" height="29" viewBox="0 0 36 29" fill="none" xmlns="http://www.w3.org/2000/svg">
<path d="M35.5364 14.4726C35.5545 22.4617 27.5711 28.9944 17.7817 29C13.5537 29.0025 9.67001 27.7997 6.61807 25.7895C5.82448 25.2668 5.76516 24.2961 6.48632 23.7076L7.29353 23.0488C7.91031 22.5455 8.89497 22.4904 9.57831 22.9328C11.8268 24.389 14.6725 25.2581 17.7688 25.2581C25.0553 25.2581 30.9512 20.4456 30.9512 14.5C30.9512 8.55355 25.0542 3.74194 17.7688 3.74194C14.2716 3.74194 11.0953 4.85102 8.73686 6.66136L12.3731 9.62884C13.0952 10.2182 12.5838 11.2258 11.5625 11.2258H1.14752C0.514403 11.2258 0.0012207 10.807 0.0012207 10.2903V1.79069C0.0012207 0.957294 1.23592 0.539892 1.95809 1.12919L5.49527 4.01586C8.68506 1.52812 13.0082 0 17.7688 0C27.5704 0 35.5183 6.47707 35.5364 14.4726ZM22.5752 19.0789L23.279 18.3405C23.862 17.7287 23.727 16.8471 22.9774 16.3714L20.0614 14.5204V8.41937C20.0614 7.64438 19.2916 7.01614 18.342 7.01614H17.1957C16.246 7.01614 15.4762 7.64438 15.4762 8.41937V16.3506L20.1623 19.3251C20.912 19.8008 21.9922 19.6907 22.5752 19.0789Z" fill="white"/>
</svg>
