<svg width="34" height="36" viewBox="0 0 34 36" fill="none" xmlns="http://www.w3.org/2000/svg">
<path d="M26.5866 12.1231C26.5866 9.43829 25.5505 6.86345 23.706 4.965C21.8617 3.06653 19.3603 2 16.752 2C14.1436 2 11.6422 3.06653 9.79782 4.965C7.95346 6.86345 6.91732 9.43829 6.91732 12.1231C6.91732 23.9335 2 27.3078 2 27.3078H31.5039C31.5039 27.3078 26.5866 23.9335 26.5866 12.1231Z" stroke="white" stroke-width="4" stroke-linecap="round" stroke-linejoin="round"/>
<path d="M19.5872 32.053C19.299 32.5324 18.8855 32.9304 18.3877 33.2069C17.8901 33.4835 17.3259 33.6292 16.7515 33.6292C16.1772 33.6292 15.613 33.4835 15.1154 33.2069C14.6178 32.9304 14.204 32.5324 13.9159 32.053" stroke="white" stroke-width="4" stroke-linecap="round" stroke-linejoin="round"/>
</svg>
