<svg width="18" height="21" viewBox="0 0 18 21" fill="none" xmlns="http://www.w3.org/2000/svg">
<path d="M14.3333 7.28947C14.3333 5.78068 13.7715 4.3337 12.7712 3.26683C11.771 2.19995 10.4145 1.60059 9 1.60059C7.58551 1.60059 6.22896 2.19995 5.22876 3.26683C4.22857 4.3337 3.66667 5.78068 3.66667 7.28947C3.66667 13.9265 1 15.8228 1 15.8228H17C17 15.8228 14.3333 13.9265 14.3333 7.28947Z" stroke="white" stroke-width="2" stroke-linecap="round" stroke-linejoin="round"/>
<path d="M10.5375 18.4893C10.3812 18.7587 10.1569 18.9823 9.88698 19.1377C9.61711 19.2932 9.31116 19.375 8.99969 19.375C8.68822 19.375 8.38227 19.2932 8.1124 19.1377C7.84254 18.9823 7.61818 18.7587 7.46191 18.4893" stroke="white" stroke-width="2" stroke-linecap="round" stroke-linejoin="round"/>
</svg>
