<svg width="29" height="35" viewBox="0 0 29 35" fill="none" xmlns="http://www.w3.org/2000/svg">
<path d="M26.7224 8.59571H21.3779V6.87657C21.3779 5.05279 20.6272 3.30371 19.2908 2.0141C17.9544 0.724494 16.1419 0 14.252 0C12.362 0 10.5495 0.724494 9.21313 2.0141C7.87675 3.30371 7.12598 5.05279 7.12598 6.87657V8.59571H1.78149C1.30901 8.59571 0.855883 8.77683 0.521788 9.09923C0.187693 9.42164 0 9.85891 0 10.3148V29.2254C0 30.5932 0.563078 31.9051 1.56536 32.8723C2.56765 33.8395 3.92704 34.3828 5.34448 34.3828H23.1594C24.5769 34.3828 25.9363 33.8395 26.9385 32.8723C27.9408 31.9051 28.5039 30.5932 28.5039 29.2254V10.3148C28.5039 9.85891 28.3162 9.42164 27.9821 9.09923C27.648 8.77683 27.1949 8.59571 26.7224 8.59571ZM10.689 6.87657C10.689 5.96468 11.0644 5.09014 11.7325 4.44533C12.4007 3.80053 13.307 3.43828 14.252 3.43828C15.1969 3.43828 16.1032 3.80053 16.7714 4.44533C17.4396 5.09014 17.8149 5.96468 17.8149 6.87657V8.59571H10.689V6.87657ZM24.9409 29.2254C24.9409 29.6814 24.7532 30.1186 24.4191 30.441C24.085 30.7634 23.6319 30.9446 23.1594 30.9446H5.34448C4.872 30.9446 4.41887 30.7634 4.08478 30.441C3.75068 30.1186 3.56299 29.6814 3.56299 29.2254V12.034H7.12598V13.7531C7.12598 14.2091 7.31367 14.6463 7.64776 14.9688C7.98186 15.2912 8.43499 15.4723 8.90747 15.4723C9.37995 15.4723 9.83308 15.2912 10.1672 14.9688C10.5013 14.6463 10.689 14.2091 10.689 13.7531V12.034H17.8149V13.7531C17.8149 14.2091 18.0026 14.6463 18.3367 14.9688C18.6708 15.2912 19.124 15.4723 19.5964 15.4723C20.0689 15.4723 20.522 15.2912 20.8561 14.9688C21.1902 14.6463 21.3779 14.2091 21.3779 13.7531V12.034H24.9409V29.2254Z" fill="white"/>
</svg>
