<svg width="32" height="31" viewBox="0 0 32 31" fill="none" xmlns="http://www.w3.org/2000/svg">
<path fill-rule="evenodd" clip-rule="evenodd" d="M11.1047 24.735L5.6 28.09L6.56451 22.2116C4.27648 20.1765 3 17.3496 3 14.2245C3 8.02537 8.02255 3 16 3C23.9774 3 29 8.02537 29 14.2245C29 20.4236 23.9774 25.4489 16 25.4489C14.2121 25.4489 12.5725 25.1965 11.1047 24.735Z" stroke="white" stroke-width="5" stroke-linecap="round" stroke-linejoin="round"/>
<path fill-rule="evenodd" clip-rule="evenodd" d="M10.2301 12.7573C11.0278 12.7573 11.6745 13.3814 11.6745 14.1512C11.6745 14.866 11.1169 15.4552 10.3985 15.5357L10.2301 15.5451C9.426 15.5451 8.7793 14.921 8.7793 14.1512C8.7793 13.4364 9.33691 12.8472 10.0553 12.7667L10.2301 12.7573Z" fill="white"/>
<path fill-rule="evenodd" clip-rule="evenodd" d="M16.0072 12.7573C16.8049 12.7573 17.4516 13.3814 17.4516 14.1512C17.4516 14.866 16.894 15.4552 16.1756 15.5357L16.0072 15.5451C15.2031 15.5451 14.5564 14.921 14.5564 14.1512C14.5564 13.4364 15.114 12.8472 15.8324 12.7667L16.0072 12.7573Z" fill="white"/>
<path fill-rule="evenodd" clip-rule="evenodd" d="M21.7875 12.7573C22.5852 12.7573 23.2319 13.3814 23.2319 14.1512C23.2319 14.866 22.6743 15.4552 21.9559 15.5357L21.7875 15.5451C20.9834 15.5451 20.3367 14.921 20.3367 14.1512C20.3367 13.4364 20.8943 12.8472 21.6127 12.7667L21.7875 12.7573Z" fill="white"/>
</svg>
