<svg width="42" height="42" viewBox="0 0 42 42" fill="none" xmlns="http://www.w3.org/2000/svg">
<path d="M35.4503 15.75L33.5997 17.6006L36.9859 21L33.5865 24.3994L35.4503 26.25L40.7003 21L35.4503 15.75Z" fill="white"/>
<path d="M8.41496 17.6138L6.56433 15.75L1.31433 21L6.56433 26.25L8.42808 24.3994L5.02871 21L8.41496 17.6138Z" fill="white"/>
<path d="M21.0002 36.9731L17.6009 33.5737L15.7502 35.4375L21.0002 40.6875L26.2502 35.4375L24.3996 33.5869L21.0002 36.9731Z" fill="white"/>
<path d="M21.0002 5.02688L24.3865 8.41313L26.2502 6.5625L21.0002 1.3125L15.7502 6.5625L17.6009 8.42625L21.0002 5.02688Z" fill="white"/>
<path d="M28.8746 21C28.8761 19.2347 28.2844 17.5202 27.1945 16.1316C26.1047 14.743 24.5799 13.7608 22.8649 13.3427C21.1499 12.9246 19.3442 13.0949 17.7375 13.8261C16.1309 14.5573 14.8165 15.8071 14.0053 17.3749C13.1942 18.9427 12.9333 20.7376 13.2645 22.4715C13.5958 24.2053 14.5 25.7776 15.832 26.936C17.164 28.0943 18.8465 28.7716 20.6096 28.859C22.3726 28.9464 24.1139 28.439 25.554 27.4181L30.5678 32.4318L32.4315 30.5681L27.4178 25.5543C28.3637 24.2239 28.8728 22.6324 28.8746 21ZM20.9996 26.25C19.9613 26.25 18.9463 25.9421 18.0829 25.3652C17.2195 24.7883 16.5466 23.9684 16.1493 23.0091C15.7519 22.0497 15.6479 20.9941 15.8505 19.9757C16.0531 18.9573 16.5531 18.0219 17.2873 17.2877C18.0216 16.5534 18.957 16.0534 19.9754 15.8508C20.9938 15.6483 22.0494 15.7522 23.0087 16.1496C23.968 16.547 24.788 17.2199 25.3649 18.0832C25.9417 18.9466 26.2496 19.9616 26.2496 21C26.2496 22.3924 25.6965 23.7277 24.712 24.7123C23.7274 25.6968 22.392 26.25 20.9996 26.25Z" fill="white"/>
</svg>
