<svg width="29" height="25" viewBox="0 0 29 25" fill="none" xmlns="http://www.w3.org/2000/svg">
<path d="M5.37697 12.3684C5.37697 13.8529 4.17292 15.0569 2.68848 15.0569C1.20405 15.0569 0 13.8529 0 12.3684C0 10.884 1.20405 9.67993 2.68848 9.67993C4.17292 9.67993 5.37697 10.884 5.37697 12.3684Z" fill="black"/>
<path d="M5.37697 2.68848C5.37697 4.17292 4.17292 5.37697 2.68848 5.37697C1.20405 5.37697 0 4.17292 0 2.68848C0 1.20405 1.20405 0 2.68848 0C4.17292 0 5.37697 1.20405 5.37697 2.68848Z" fill="black"/>
<path d="M5.37697 22.0491C5.37697 23.5335 4.17292 24.7376 2.68848 24.7376C1.20405 24.7376 0 23.5335 0 22.0491C0 20.5646 1.20405 19.3606 2.68848 19.3606C4.17292 19.3606 5.37697 20.5646 5.37697 22.0491Z" fill="black"/>
<path d="M10.0956 0H25.8131C27.2986 0 28.5037 1.20405 28.5037 2.69055C28.5037 4.17705 27.2996 5.38109 25.8131 5.38109H10.0956C8.61011 5.38109 7.40503 4.17705 7.40503 2.69055C7.40503 1.20405 8.60907 0 10.0956 0Z" fill="black"/>
<path d="M10.0956 9.67993H25.8131C27.2986 9.67993 28.5037 10.884 28.5037 12.3705C28.5037 13.857 27.2996 15.061 25.8131 15.061H10.0956C8.61011 15.061 7.40503 13.857 7.40503 12.3705C7.40503 10.884 8.60907 9.67993 10.0956 9.67993Z" fill="black"/>
<path d="M10.0956 19.3606H25.8131C27.2986 19.3606 28.5037 20.5646 28.5037 22.0511C28.5037 23.5376 27.2996 24.7417 25.8131 24.7417H10.0956C8.61011 24.7417 7.40503 23.5376 7.40503 22.0511C7.40503 20.5646 8.60907 19.3606 10.0956 19.3606Z" fill="black"/>
</svg>
