<svg width="37" height="37" viewBox="0 0 37 37" fill="none" xmlns="http://www.w3.org/2000/svg">
<path d="M5.28613 5.28571C5.28613 2.36649 7.65262 0 10.5718 0C13.4911 0 15.8576 2.36649 15.8576 5.28571C15.8576 6.98972 15.0512 8.5054 13.7993 9.472C13.7616 9.49977 13.7242 9.52789 13.6871 9.5563C12.8135 10.1946 11.7367 10.5714 10.5718 10.5714C7.65262 10.5714 5.28613 8.20493 5.28613 5.28571Z" fill="#212121"/>
<path d="M23.2025 9.472C23.2402 9.49977 23.2776 9.52789 23.3148 9.55633C24.1883 10.1947 25.2653 10.5714 26.43 10.5714C29.3493 10.5714 31.7157 8.20493 31.7157 5.28571C31.7157 2.36649 29.3493 0 26.43 0C23.5108 0 21.1443 2.36649 21.1443 5.28571C21.1443 6.98972 21.9506 8.5054 23.2025 9.472Z" fill="#212121"/>
<path d="M13.9223 13.2141C14.8363 11.6342 16.5445 10.5713 18.5009 10.5713C20.4574 10.5713 22.1656 11.6342 23.0795 13.2141C23.5292 13.9916 23.7866 14.8942 23.7866 15.857C23.7866 18.7762 21.4201 21.1427 18.5009 21.1427C15.5817 21.1427 13.2152 18.7762 13.2152 15.857C13.2152 14.8942 13.4726 13.9916 13.9223 13.2141Z" fill="#212121"/>
<path d="M3.96423 13.2144H11.0226C10.7304 14.041 10.5714 14.9305 10.5714 15.8572C10.5714 17.8878 11.3348 19.7402 12.5903 21.1429H11.8928C9.02493 21.1429 6.58388 22.9702 5.67017 25.5237C4.7717 25.1582 3.94045 24.6806 3.20354 24.0892C1.21299 22.4915 0 20.1283 0 17.1786C0 14.9893 1.77484 13.2144 3.96423 13.2144Z" fill="#212121"/>
<path d="M25.101 21.1429C27.9688 21.1429 30.41 22.9701 31.3236 25.5237C32.2222 25.1582 33.0534 24.6806 33.7905 24.0892C35.7808 22.4915 36.9939 20.1283 36.9939 17.1786C36.9939 14.9892 35.2189 13.2144 33.0296 13.2144H25.9713C26.2633 14.041 26.4224 14.9305 26.4224 15.8572C26.4224 17.8878 25.6589 19.7402 24.4036 21.1429H25.101Z" fill="#212121"/>
<path d="M28.7735 26.2382C28.9657 26.7042 29.0719 27.2147 29.0719 27.7499C29.0719 30.6996 27.8589 33.0629 25.8685 34.6605C23.9094 36.233 21.2836 36.9999 18.5005 36.9999C15.7174 36.9999 13.0917 36.233 11.1326 34.6605C9.14207 33.0629 7.92908 30.6996 7.92908 27.7499C7.92908 27.2147 8.03519 26.7042 8.22751 26.2382C8.82178 24.7987 10.2392 23.7856 11.8933 23.7856H25.1076C26.7618 23.7856 28.1792 24.7987 28.7735 26.2382Z" fill="#212121"/>
</svg>
