<svg width="25" height="25" viewBox="0 0 25 25" fill="none" xmlns="http://www.w3.org/2000/svg">
<path d="M7.65864 11.875C8.06487 11.875 8.45446 11.7433 8.74171 11.5089C9.02896 11.2745 9.19033 10.9565 9.19033 10.625C9.19033 10.2935 9.02896 9.97554 8.74171 9.74112C8.45446 9.5067 8.06487 9.375 7.65864 9.375C7.25241 9.375 6.86282 9.5067 6.57558 9.74112C6.28833 9.97554 6.12695 10.2935 6.12695 10.625C6.12695 10.9565 6.28833 11.2745 6.57558 11.5089C6.86282 11.7433 7.25241 11.875 7.65864 11.875ZM10.722 10.625C10.722 10.2935 10.8834 9.97554 11.1706 9.74112C11.4579 9.5067 11.8475 9.375 12.2537 9.375H16.8488C17.255 9.375 17.6446 9.5067 17.9319 9.74112C18.2191 9.97554 18.3805 10.2935 18.3805 10.625C18.3805 10.9565 18.2191 11.2745 17.9319 11.5089C17.6446 11.7433 17.255 11.875 16.8488 11.875H12.2537C11.8475 11.875 11.4579 11.7433 11.1706 11.5089C10.8834 11.2745 10.722 10.9565 10.722 10.625ZM12.2537 13.125C11.8475 13.125 11.4579 13.2567 11.1706 13.4911C10.8834 13.7255 10.722 14.0435 10.722 14.375C10.722 14.7065 10.8834 15.0245 11.1706 15.2589C11.4579 15.4933 11.8475 15.625 12.2537 15.625H16.8488C17.255 15.625 17.6446 15.4933 17.9319 15.2589C18.2191 15.0245 18.3805 14.7065 18.3805 14.375C18.3805 14.0435 18.2191 13.7255 17.9319 13.4911C17.6446 13.2567 17.255 13.125 16.8488 13.125H12.2537ZM12.2537 16.875C11.8475 16.875 11.4579 17.0067 11.1706 17.2411C10.8834 17.4755 10.722 17.7935 10.722 18.125C10.722 18.4565 10.8834 18.7745 11.1706 19.0089C11.4579 19.2433 11.8475 19.375 12.2537 19.375H16.8488C17.255 19.375 17.6446 19.2433 17.9319 19.0089C18.2191 18.7745 18.3805 18.4565 18.3805 18.125C18.3805 17.7935 18.2191 17.4755 17.9319 17.2411C17.6446 17.0067 17.255 16.875 16.8488 16.875H12.2537ZM9.19033 14.375C9.19033 14.7065 9.02896 15.0245 8.74171 15.2589C8.45446 15.4933 8.06487 15.625 7.65864 15.625C7.25241 15.625 6.86282 15.4933 6.57558 15.2589C6.28833 15.0245 6.12695 14.7065 6.12695 14.375C6.12695 14.0435 6.28833 13.7255 6.57558 13.4911C6.86282 13.2567 7.25241 13.125 7.65864 13.125C8.06487 13.125 8.45446 13.2567 8.74171 13.4911C9.02896 13.7255 9.19033 14.0435 9.19033 14.375ZM7.65864 19.375C8.06487 19.375 8.45446 19.2433 8.74171 19.0089C9.02896 18.7745 9.19033 18.4565 9.19033 18.125C9.19033 17.7935 9.02896 17.4755 8.74171 17.2411C8.45446 17.0067 8.06487 16.875 7.65864 16.875C7.25241 16.875 6.86282 17.0067 6.57558 17.2411C6.28833 17.4755 6.12695 17.7935 6.12695 18.125C6.12695 18.4565 6.28833 18.7745 6.57558 19.0089C6.86282 19.2433 7.25241 19.375 7.65864 19.375Z" fill="white"/>
<path d="M7.65845 0C7.25222 0 6.86263 0.131696 6.57538 0.366116C6.28814 0.600537 6.12676 0.918479 6.12676 1.25H3.06338C2.25092 1.25 1.47174 1.51339 0.897243 1.98223C0.322748 2.45107 0 3.08696 0 3.75V22.5C0 23.163 0.322748 23.7989 0.897243 24.2678C1.47174 24.7366 2.25092 25 3.06338 25H21.4437C22.2561 25 23.0353 24.7366 23.6098 24.2678C24.1843 23.7989 24.507 23.163 24.507 22.5V3.75C24.507 3.08696 24.1843 2.45107 23.6098 1.98223C23.0353 1.51339 22.2561 1.25 21.4437 1.25H18.3803C18.3803 0.918479 18.2189 0.600537 17.9317 0.366116C17.6444 0.131696 17.2548 0 16.8486 0H7.65845ZM18.3803 3.75H21.4437V22.5H3.06338V3.75H6.12676V5C6.12676 5.33152 6.28814 5.64946 6.57538 5.88388C6.86263 6.1183 7.25222 6.25 7.65845 6.25H16.8486C17.2548 6.25 17.6444 6.1183 17.9317 5.88388C18.2189 5.64946 18.3803 5.33152 18.3803 5V3.75ZM9.19014 3.75V2.5H15.3169V3.75H9.19014Z" fill="white"/>
</svg>
