<svg width="368" height="40" viewBox="0 0 368 40" fill="none" xmlns="http://www.w3.org/2000/svg">
<path fill-rule="evenodd" clip-rule="evenodd" d="M345.726 16.915C345.726 13.5642 348.442 10.8478 351.793 10.8478C355.144 10.8478 357.86 13.5642 357.86 16.915C357.86 20.2658 355.144 22.9822 351.793 22.9822C348.442 22.9822 345.726 20.2658 345.726 16.915ZM351.793 9.23242C347.55 9.23242 344.111 12.672 344.111 16.915C344.111 21.158 347.55 24.5976 351.793 24.5976C353.624 24.5976 355.305 23.9574 356.625 22.8887L362.026 28.2897C362.341 28.6051 362.852 28.6051 363.168 28.2897C363.483 27.9743 363.483 27.4628 363.168 27.1474L357.767 21.7464C358.836 20.4266 359.476 18.7456 359.476 16.915C359.476 12.672 356.036 9.23242 351.793 9.23242Z" fill="#121212"/>
<rect x="0.5" y="0.5" width="329" height="39" rx="5.5" fill="white" stroke="black"/>
</svg>
