<svg width="18" height="21" viewBox="0 0 18 21" fill="none" xmlns="http://www.w3.org/2000/svg">
<path d="M14.3333 7.30119C14.3333 5.7924 13.7715 4.34542 12.7712 3.27854C11.771 2.21166 10.4145 1.6123 9 1.6123C7.58551 1.6123 6.22896 2.21166 5.22876 3.27854C4.22857 4.34542 3.66667 5.7924 3.66667 7.30119C3.66667 13.9383 1 15.8345 1 15.8345H17C17 15.8345 14.3333 13.9383 14.3333 7.30119Z" stroke="white" stroke-width="2" stroke-linecap="round" stroke-linejoin="round"/>
<path d="M10.5375 18.501C10.3812 18.7704 10.1569 18.994 9.88698 19.1494C9.61711 19.3049 9.31116 19.3868 8.99969 19.3868C8.68822 19.3868 8.38227 19.3049 8.1124 19.1494C7.84254 18.994 7.61818 18.7704 7.46191 18.501" stroke="white" stroke-width="2" stroke-linecap="round" stroke-linejoin="round"/>
</svg>
