<svg width="12" height="82" viewBox="0 0 12 82" fill="none" xmlns="http://www.w3.org/2000/svg">
<g clip-path="url(#clip0_255_13776)">
<path d="M12 5.79811V6.35011C11.9993 7.64397 11.5803 8.90292 10.8056 9.93921C10.0309 10.9755 8.94197 11.7336 7.70121 12.1005C6.46046 12.4673 5.13435 12.4233 3.92068 11.9749C2.70701 11.5265 1.67079 10.6978 0.966576 9.61235C0.26236 8.52693 -0.0721253 7.24295 0.0130061 5.9519C0.0981374 4.66085 0.598324 3.43191 1.43897 2.44836C2.27961 1.46481 3.41567 0.779343 4.67771 0.494202C5.93975 0.20906 7.26016 0.339516 8.442 0.866114" stroke="#06C552" stroke-linecap="round" stroke-linejoin="round"/>
<path d="M12.0002 1.5498L6.00019 7.5558L4.2002 5.7558" stroke="#06C552" stroke-linecap="round" stroke-linejoin="round"/>
<path d="M12 28.7981V29.3501C11.9993 30.644 11.5803 31.9029 10.8056 32.9392C10.0309 33.9755 8.94197 34.7336 7.70121 35.1005C6.46046 35.4673 5.13435 35.4233 3.92068 34.9749C2.70701 34.5265 1.67079 33.6978 0.966576 32.6124C0.26236 31.5269 -0.0721253 30.243 0.0130061 28.9519C0.0981374 27.6609 0.598324 26.4319 1.43897 25.4484C2.27961 24.4648 3.41567 23.7793 4.67771 23.4942C5.93975 23.2091 7.26016 23.3395 8.442 23.8661" stroke="#06C552" stroke-linecap="round" stroke-linejoin="round"/>
<path d="M12.0002 24.5498L6.00019 30.5558L4.2002 28.7558" stroke="#06C552" stroke-linecap="round" stroke-linejoin="round"/>
<path d="M12 51.7981V52.3501C11.9993 53.644 11.5803 54.9029 10.8056 55.9392C10.0309 56.9755 8.94197 57.7336 7.70121 58.1005C6.46046 58.4673 5.13435 58.4233 3.92068 57.9749C2.70701 57.5265 1.67079 56.6978 0.966576 55.6124C0.26236 54.5269 -0.0721253 53.243 0.0130061 51.9519C0.0981374 50.6609 0.598324 49.4319 1.43897 48.4484C2.27961 47.4648 3.41567 46.7793 4.67771 46.4942C5.93975 46.2091 7.26016 46.3395 8.442 46.8661" stroke="#06C552" stroke-linecap="round" stroke-linejoin="round"/>
<path d="M12.0002 47.5498L6.00019 53.5558L4.2002 51.7558" stroke="#06C552" stroke-linecap="round" stroke-linejoin="round"/>
<path d="M12 74.7981V75.3501C11.9993 76.644 11.5803 77.9029 10.8056 78.9392C10.0309 79.9755 8.94197 80.7336 7.70121 81.1005C6.46046 81.4673 5.13435 81.4233 3.92068 80.9749C2.70701 80.5265 1.67079 79.6978 0.966576 78.6124C0.26236 77.5269 -0.0721253 76.243 0.0130061 74.9519C0.0981374 73.6609 0.598324 72.4319 1.43897 71.4484C2.27961 70.4648 3.41567 69.7793 4.67771 69.4942C5.93975 69.2091 7.26016 69.3395 8.442 69.8661" stroke="#06C552" stroke-linecap="round" stroke-linejoin="round"/>
<path d="M12.0002 70.5498L6.00019 76.5558L4.2002 74.7558" stroke="#06C552" stroke-linecap="round" stroke-linejoin="round"/>
</g>
<defs>
<clipPath id="clip0_255_13776">
<rect width="12" height="81" fill="white" transform="translate(0 0.34668)"/>
</clipPath>
</defs>
</svg>
