<svg width="18" height="21" viewBox="0 0 18 21" fill="none" xmlns="http://www.w3.org/2000/svg">
<path d="M14.3333 7.30144C14.3333 5.79265 13.7715 4.34566 12.7712 3.27879C11.771 2.21191 10.4145 1.61255 9 1.61255C7.58551 1.61255 6.22896 2.21191 5.22876 3.27879C4.22857 4.34566 3.66667 5.79265 3.66667 7.30144C3.66667 13.9385 1 15.8348 1 15.8348H17C17 15.8348 14.3333 13.9385 14.3333 7.30144Z" stroke="white" stroke-width="2" stroke-linecap="round" stroke-linejoin="round"/>
<path d="M10.5375 18.5015C10.3812 18.7709 10.1569 18.9945 9.88698 19.1499C9.61711 19.3054 9.31116 19.3872 8.99969 19.3872C8.68822 19.3872 8.38227 19.3054 8.1124 19.1499C7.84254 18.9945 7.61818 18.7709 7.46191 18.5015" stroke="white" stroke-width="2" stroke-linecap="round" stroke-linejoin="round"/>
</svg>
