<svg width="38" height="38" viewBox="0 0 38 38" fill="none" xmlns="http://www.w3.org/2000/svg">
<rect width="38" height="38" rx="19" fill="#E6E2E2"/>
<path fill-rule="evenodd" clip-rule="evenodd" d="M19.75 12C19.75 11.5858 19.4142 11.25 19 11.25C18.5858 11.25 18.25 11.5858 18.25 12V18.25H12C11.5858 18.25 11.25 18.5858 11.25 19C11.25 19.4142 11.5858 19.75 12 19.75H18.25V26C18.25 26.4142 18.5858 26.75 19 26.75C19.4142 26.75 19.75 26.4142 19.75 26V19.75H26C26.4142 19.75 26.75 19.4142 26.75 19C26.75 18.5858 26.4142 18.25 26 18.25H19.75V12Z" fill="#121212"/>
</svg>
