<svg width="15" height="15" viewBox="0 0 15 15" fill="none" xmlns="http://www.w3.org/2000/svg">
<path d="M1 1L14 14" stroke="black" stroke-width="2" stroke-linecap="round" stroke-linejoin="round"/>
<path d="M4.0633 4.0697C2.08211 5.41694 1 7.50001 1 7.50001C1 7.50001 3.36363 12.05 7.5 12.05C8.83269 12.05 9.98131 11.5777 10.9262 10.9375M6.85 2.98786C7.06151 2.9631 7.27822 2.95001 7.5 2.95001C11.6363 2.95001 14 7.50001 14 7.50001C14 7.50001 13.5503 8.36562 12.7 9.34179" stroke="black" stroke-width="2" stroke-linecap="round" stroke-linejoin="round"/>
<path d="M8.79877 8.95353C8.45375 9.26228 7.99823 9.45007 7.49877 9.45007C6.42178 9.45007 5.54877 8.57705 5.54877 7.50007C5.54877 6.96466 5.76452 6.4797 6.11383 6.12732" stroke="black" stroke-width="2" stroke-linecap="round" stroke-linejoin="round"/>
</svg>
