<svg width="20" height="20" viewBox="0 0 20 20" fill="none" xmlns="http://www.w3.org/2000/svg">
<path d="M13.3333 10L6.66659 10" stroke="#121212" stroke-width="1.25" stroke-linecap="round" stroke-linejoin="round"/>
<path d="M4.16667 4.16675H15.8333C16.2754 4.16675 16.6993 4.34234 17.0118 4.6549C17.3244 4.96746 17.5 5.39139 17.5 5.83341V8.33341C17.058 8.33341 16.634 8.50901 16.3215 8.82157C16.0089 9.13413 15.8333 9.55805 15.8333 10.0001C15.8333 10.4421 16.0089 10.866 16.3215 11.1786C16.634 11.4912 17.058 11.6667 17.5 11.6667V14.1667C17.5 14.6088 17.3244 15.0327 17.0118 15.3453C16.6993 15.6578 16.2754 15.8334 15.8333 15.8334H4.16667C3.72464 15.8334 3.30072 15.6578 2.98816 15.3453C2.67559 15.0327 2.5 14.6088 2.5 14.1667V11.6667C2.94203 11.6667 3.36595 11.4912 3.67851 11.1786C3.99107 10.866 4.16667 10.4421 4.16667 10.0001C4.16667 9.55805 3.99107 9.13413 3.67851 8.82157C3.36595 8.50901 2.94203 8.33341 2.5 8.33341V5.83341C2.5 5.39139 2.67559 4.96746 2.98816 4.6549C3.30072 4.34234 3.72464 4.16675 4.16667 4.16675" stroke="#121212" stroke-width="1.25" stroke-linecap="round" stroke-linejoin="round"/>
</svg>
