<svg width="34" height="28" viewBox="0 0 34 28" fill="none" xmlns="http://www.w3.org/2000/svg">
<path fill-rule="evenodd" clip-rule="evenodd" d="M11.3322 9.33332C11.3322 7.3277 13.3188 5.47435 16.0753 5.47435C18.8319 5.47435 20.8185 7.3277 20.8185 9.33332C20.8185 11.3389 18.8319 13.1923 16.0753 13.1923C13.3188 13.1923 11.3322 11.3389 11.3322 9.33332ZM16.0753 3.85896C12.7006 3.85896 9.7168 6.18428 9.7168 9.33332C9.7168 12.4824 12.7006 14.8077 16.0753 14.8077C19.4501 14.8077 22.4339 12.4824 22.4339 9.33332C22.4339 6.18428 19.4501 3.85896 16.0753 3.85896ZM9.89466 19.3638C10.7777 18.6214 12.001 18.1864 13.2999 18.1864H18.8508C20.1497 18.1864 21.3731 18.6214 22.2561 19.3638C23.1349 20.1027 23.5939 21.0716 23.5939 22.0454V24.3787C23.5939 24.8248 23.9556 25.1864 24.4016 25.1864C24.8477 25.1864 25.2093 24.8248 25.2093 24.3787V22.0454C25.2093 20.5438 24.4987 19.1388 23.2956 18.1273C22.0966 17.1193 20.4962 16.571 18.8508 16.571H13.2999C11.6545 16.571 10.0541 17.1193 8.85514 18.1273C7.65202 19.1388 6.94141 20.5438 6.94141 22.0454V24.3787C6.94141 24.8248 7.30302 25.1864 7.7491 25.1864C8.19517 25.1864 8.55679 24.8248 8.55679 24.3787V22.0454C8.55679 21.0716 9.01581 20.1027 9.89466 19.3638Z" fill="white"/>
</svg>
