<svg width="28" height="28" viewBox="0 0 28 28" fill="none" xmlns="http://www.w3.org/2000/svg">
<path fill-rule="evenodd" clip-rule="evenodd" d="M16.6922 7.00023C16.6922 6.82793 16.6049 6.46229 16.2512 6.13472C15.9094 5.81824 15.2479 5.47476 13.9999 5.47476C12.7519 5.47476 12.0905 5.81824 11.7487 6.13472C11.3949 6.46229 11.3077 6.82793 11.3076 7.00023C11.3076 7.00028 11.3076 7.00034 11.3076 7.0004V8.82016H16.6922V7.0004C16.6922 7.00034 16.6922 7.00028 16.6922 7.00023ZM18.3076 7.00023C18.3076 6.39469 18.0447 5.59389 17.3487 4.94941C16.6405 4.29367 15.5519 3.85938 13.9999 3.85938C12.4479 3.85938 11.3594 4.29367 10.6512 4.94941C9.95513 5.59389 9.69228 6.39469 9.69223 7.00023C9.69223 7.00028 9.69223 7.00034 9.69223 7.0004V8.82016H6.91789C6.47181 8.82016 6.11019 9.18178 6.11019 9.62785V20.661C6.11019 21.2953 6.3643 21.9024 6.81448 22.3489C7.26444 22.7952 7.87333 23.0448 8.50686 23.0448H19.6297C20.2632 23.0448 20.8721 22.7952 21.3221 22.3489C21.7723 21.9024 22.0264 21.2953 22.0264 20.661V9.62785C22.0264 9.18178 21.6648 8.82016 21.2187 8.82016H18.3076V7.0004C18.3076 7.00034 18.3076 7.00028 18.3076 7.00023ZM18.3076 12.8336V10.4355H20.411V20.661C20.411 20.8627 20.3303 21.0574 20.1845 21.202C20.0384 21.3469 19.839 21.4294 19.6297 21.4294H8.50686C8.29755 21.4294 8.09812 21.3469 7.95209 21.202C7.80629 21.0574 7.72558 20.8627 7.72558 20.661V10.4355H9.69223V12.8336H11.3076V10.4355H16.6922V12.8336H18.3076Z" fill="white"/>
</svg>
