<svg width="28" height="28" viewBox="0 0 28 28" fill="none" xmlns="http://www.w3.org/2000/svg">
<path fill-rule="evenodd" clip-rule="evenodd" d="M16.6922 6.99999C16.6922 6.82777 16.6051 6.46199 16.2512 6.13431C15.9094 5.81783 15.2479 5.47435 13.9999 5.47435C12.7519 5.47435 12.0905 5.81783 11.7487 6.13431C11.3948 6.46199 11.3076 6.82777 11.3076 6.99999H9.69223C9.69223 6.39443 9.95507 5.59354 10.6512 4.949C11.3594 4.29326 12.4479 3.85896 13.9999 3.85896C15.5519 3.85896 16.6405 4.29326 17.3487 4.949C18.0448 5.59354 18.3076 6.39443 18.3076 6.99999H16.6922ZM16.6922 6.99999V8.82019H11.3076V6.99999H9.69223V8.82019H6.91788C6.47181 8.82019 6.11019 9.18181 6.11019 9.62789V20.661C6.11019 21.2954 6.3643 21.9024 6.81448 22.3489C7.26443 22.7953 7.87333 23.0448 8.50686 23.0448H19.6297C20.2632 23.0448 20.8721 22.7953 21.3221 22.3489C21.7723 21.9024 22.0264 21.2954 22.0264 20.661V9.62789C22.0264 9.18181 21.6648 8.82019 21.2187 8.82019H18.3076V6.99999H16.6922ZM18.3076 12.8333V10.4356H20.411V20.661C20.411 20.8627 20.3303 21.0574 20.1845 21.2021C20.0384 21.3469 19.839 21.4295 19.6297 21.4295H8.50686C8.29755 21.4295 8.09812 21.3469 7.95209 21.2021C7.80629 21.0574 7.72558 20.8627 7.72558 20.661V10.4356H9.69223V12.8333H11.3076V10.4356H16.6922V12.8333H18.3076Z" fill="white"/>
</svg>
