<svg width="34" height="28" viewBox="0 0 34 28" fill="none" xmlns="http://www.w3.org/2000/svg">
<path fill-rule="evenodd" clip-rule="evenodd" d="M11.3324 9.33373C11.3324 7.32811 13.319 5.47476 16.0756 5.47476C18.8321 5.47476 20.8187 7.32811 20.8187 9.33373C20.8187 11.3394 18.8321 13.1927 16.0756 13.1927C13.319 13.1927 11.3324 11.3394 11.3324 9.33373ZM16.0756 3.85938C12.7008 3.85938 9.71704 6.1847 9.71704 9.33373C9.71704 12.4828 12.7008 14.8081 16.0756 14.8081C19.4503 14.8081 22.4341 12.4828 22.4341 9.33373C22.4341 6.1847 19.4503 3.85938 16.0756 3.85938ZM9.89491 19.3638C10.7779 18.6215 12.0013 18.1864 13.3002 18.1864H18.851C20.1499 18.1864 21.3733 18.6215 22.2563 19.3638C23.1352 20.1027 23.5942 21.0717 23.5942 22.0454V24.3788C23.5942 24.8248 23.9558 25.1864 24.4019 25.1864C24.848 25.1864 25.2096 24.8248 25.2096 24.3788V22.0454C25.2096 20.5438 24.499 19.1388 23.2958 18.1274C22.0969 17.1194 20.4965 16.5711 18.851 16.5711H13.3002C11.6547 16.5711 10.0543 17.1194 8.85539 18.1274C7.65227 19.1388 6.94165 20.5438 6.94165 22.0454V24.3788C6.94165 24.8248 7.30327 25.1864 7.74934 25.1864C8.19542 25.1864 8.55703 24.8248 8.55703 24.3788V22.0454C8.55703 21.0717 9.01606 20.1027 9.89491 19.3638Z" fill="white"/>
</svg>
