<svg width="22" height="22" viewBox="0 0 22 22" fill="none" xmlns="http://www.w3.org/2000/svg">
<path fill-rule="evenodd" clip-rule="evenodd" d="M11.75 4.58301C11.75 4.16879 11.4143 3.83301 11 3.83301C10.5858 3.83301 10.25 4.16879 10.25 4.58301V10.2497H4.58337C4.16916 10.2497 3.83337 10.5855 3.83337 10.9997C3.83337 11.4139 4.16916 11.7497 4.58337 11.7497H10.25V17.4163C10.25 17.8306 10.5858 18.1663 11 18.1663C11.4143 18.1663 11.75 17.8306 11.75 17.4163V11.7497H17.4167C17.8309 11.7497 18.1667 11.4139 18.1667 10.9997C18.1667 10.5855 17.8309 10.2497 17.4167 10.2497H11.75V4.58301Z" fill="#121212"/>
</svg>
