<svg width="28" height="28" viewBox="0 0 28 28" fill="none" xmlns="http://www.w3.org/2000/svg">
<path fill-rule="evenodd" clip-rule="evenodd" d="M5.72622 11.9147C5.72622 8.56393 8.4426 5.84756 11.7934 5.84756C15.1442 5.84756 17.8606 8.56393 17.8606 11.9147C17.8606 15.2656 15.1442 17.9819 11.7934 17.9819C8.4426 17.9819 5.72622 15.2656 5.72622 11.9147ZM11.7934 4.23218C7.55044 4.23218 4.11084 7.67178 4.11084 11.9147C4.11084 16.1577 7.55044 19.5973 11.7934 19.5973C13.6239 19.5973 15.3049 18.9571 16.6247 17.8884L22.0257 23.2894C22.3411 23.6049 22.8525 23.6049 23.168 23.2894C23.4834 22.974 23.4834 22.4626 23.168 22.1472L17.767 16.7462C18.8357 15.4264 19.476 13.7453 19.476 11.9147C19.476 7.67178 16.0364 4.23218 11.7934 4.23218Z" fill="#121212"/>
</svg>
