<svg width="28" height="29" viewBox="0 0 28 29" fill="none" xmlns="http://www.w3.org/2000/svg">
<path fill-rule="evenodd" clip-rule="evenodd" d="M16.6922 7.49998C16.6922 7.32769 16.6049 6.96205 16.2512 6.63448C15.9094 6.318 15.2479 5.97452 13.9999 5.97452C12.7519 5.97452 12.0905 6.318 11.7487 6.63448C11.3949 6.96205 11.3077 7.32769 11.3076 7.49998C11.3076 7.50004 11.3076 7.5001 11.3076 7.50016V9.31992H16.6922V7.50016C16.6922 7.5001 16.6922 7.50004 16.6922 7.49998ZM18.3076 7.49998C18.3076 6.89445 18.0447 6.09365 17.3487 5.44917C16.6405 4.79343 15.5519 4.35913 13.9999 4.35913C12.4479 4.35913 11.3594 4.79343 10.6512 5.44917C9.95513 6.09365 9.69228 6.89445 9.69223 7.49998C9.69223 7.50004 9.69223 7.5001 9.69223 7.50016V9.31992H6.91788C6.47181 9.31992 6.11019 9.68153 6.11019 10.1276V21.1607C6.11019 21.7951 6.3643 22.4021 6.81448 22.8487C7.26443 23.295 7.87333 23.5446 8.50686 23.5446H19.6297C20.2632 23.5446 20.8721 23.295 21.3221 22.8487C21.7723 22.4021 22.0264 21.7951 22.0264 21.1607V10.1276C22.0264 9.68153 21.6648 9.31992 21.2187 9.31992H18.3076V7.50016C18.3076 7.5001 18.3076 7.50004 18.3076 7.49998ZM18.3076 13.3333V10.9353H20.411V21.1607C20.411 21.3624 20.3303 21.5572 20.1845 21.7018C20.0384 21.8466 19.839 21.9292 19.6297 21.9292H8.50686C8.29755 21.9292 8.09812 21.8467 7.95209 21.7018C7.80629 21.5572 7.72558 21.3624 7.72558 21.1607V10.9353H9.69223V13.3333H11.3076V10.9353H16.6922V13.3333H18.3076Z" fill="white"/>
</svg>
