<svg width="85" height="74" viewBox="0 0 85 74" fill="none" xmlns="http://www.w3.org/2000/svg">
<path d="M52.3605 0.636719C49.2726 0.663952 46.2713 1.6645 43.7812 3.49684C43.2257 3.85315 42.5803 4.04248 41.921 4.04248C41.2617 4.04248 40.6163 3.85315 40.0608 3.49684C37.569 1.66398 34.5659 0.663434 31.4762 0.636719C23.4474 0.636719 17.1577 8.09807 17.1577 17.6187C17.1577 21.5943 18.9252 25.0515 20.4843 28.1011L20.7765 28.6731C23.271 33.5746 25.1437 37.9882 26.6564 41.5437C29.9118 49.2016 31.8753 53.8225 35.8326 53.8225C39.8577 53.8225 40.5775 50.0937 40.5775 47.9235C40.5775 41.6527 41.4542 41.0699 41.9264 41.0699C42.3985 41.0699 45.0142 41.5365 45.0142 48.812C45.0142 50.326 44.4903 53.8172 48.0183 53.8172C51.9756 53.8172 53.9409 49.1963 57.1963 41.5383C58.7054 37.9846 60.5817 33.5621 63.0762 28.6677L63.3684 28.0957C64.9275 25.0568 66.6968 21.6086 66.6968 17.6133C66.679 8.09628 60.3893 0.636719 52.3605 0.636719Z" fill="#843E71"/>
<path d="M29.4789 25.2839L29.4664 25.2982C29.3252 25.4447 29.2167 25.6198 29.1484 25.8118C29.0801 26.0038 29.0535 26.2082 29.0704 26.4113C29.0872 26.6144 29.1472 26.8116 29.2462 26.9896C29.3453 27.1676 29.4811 27.3223 29.6446 27.4433C34.4554 31.0327 44.4459 33.9876 55.4396 24.694C55.5867 24.5694 55.7072 24.4163 55.7937 24.2437C55.8802 24.0712 55.931 23.8829 55.943 23.6901C55.955 23.4973 55.9279 23.3041 55.8634 23.1221C55.7989 22.9401 55.6984 22.7731 55.5678 22.6311C55.318 22.3554 54.9707 22.1884 54.6 22.1657C54.2293 22.143 53.8643 22.2664 53.5829 22.5096C42.714 31.7174 34.1614 27.1412 31.3497 25.1123C31.0702 24.9085 30.7263 24.8136 30.3822 24.8451C30.038 24.8767 29.717 25.0326 29.4789 25.2839Z" fill="#BF52A2"/>
<path d="M59.3311 18.5356C58.759 17.991 57.855 18.0147 57.3121 18.5887C56.7692 19.1626 56.7929 20.0695 57.365 20.6142C57.9371 21.1589 58.841 21.1351 59.384 20.5611C59.9269 19.9872 59.9032 19.0803 59.3311 18.5356Z" fill="#BF52A2"/>
<path d="M53.228 0.100586C50.055 0.131902 46.9721 1.16307 44.4152 3.0483C43.8446 3.41431 43.1816 3.6088 42.5043 3.6088C41.827 3.6088 41.1639 3.41431 40.5933 3.0483C38.0346 1.16277 34.9499 0.131625 31.7752 0.100586C23.5273 0.100586 17.0684 7.76393 17.0684 17.5473C17.0684 21.632 18.884 25.1821 20.4858 28.3157L20.7852 28.902C23.3438 33.9359 25.2717 38.471 26.8201 42.114C30.1627 49.9794 32.1815 54.7272 36.2458 54.7272C40.3795 54.7272 41.1189 50.8964 41.1189 48.6727C41.1189 42.2374 42.0205 41.6332 42.5034 41.6332C42.9862 41.6332 43.8896 42.1122 43.8896 49.5861C43.8896 51.1395 45.1369 54.7272 48.7628 54.7272C52.8271 54.7272 54.8458 49.9794 58.1885 42.1123C59.7404 38.4638 61.6718 33.9198 64.2234 28.9038L64.5227 28.3157C66.1263 25.191 67.9402 21.6516 67.9402 17.5473C67.9348 7.76036 61.4812 0.100586 53.228 0.100586ZM62.21 27.1234L61.9053 27.7187C59.3217 32.8008 57.3706 37.3895 55.7973 41.0916C53.0765 47.4965 51.1094 52.1245 48.7575 52.1245C47.332 52.1245 46.4786 50.9608 46.4786 48.6387C46.4786 41.6904 45.2527 39.0037 42.498 39.0037C39.3532 39.0037 38.5193 42.4001 38.5193 49.3466C38.5193 50.6605 37.6623 52.1245 36.2404 52.1245C33.8885 52.1245 31.9214 47.4964 29.197 41.0826C27.629 37.3948 25.6762 32.8043 23.0908 27.7187L22.7879 27.1234C21.3197 24.2544 19.6573 21.0009 19.6573 17.5473C19.6573 9.22438 24.9777 2.71045 31.7735 2.71045C34.3972 2.73412 36.9467 3.58734 39.0592 5.14871C41.7635 6.94421 44.9526 7.86218 48.1944 7.77823C50.3966 7.76391 52.5829 7.40196 54.673 6.70568C54.9807 6.63552 55.2532 6.45696 55.4408 6.20242C55.6285 5.94789 55.7189 5.63426 55.6957 5.31852C55.6689 4.99857 55.528 4.69906 55.299 4.47483C55.0699 4.2506 54.768 4.11668 54.4485 4.09761C54.1895 4.08543 53.9327 4.15077 53.7108 4.28531C51.269 5.096 48.6771 5.34705 46.1258 5.02001C48.2045 3.53198 50.6887 2.72075 53.2422 2.69615C60.0344 2.69615 65.3584 9.21545 65.3584 17.5331C65.3406 20.9974 63.6782 24.2508 62.21 27.1198V27.1234Z" fill="#BF52A2"/>
<path d="M53.8911 25.4088C53.8319 25.3229 53.747 25.2582 53.6487 25.2238C53.5504 25.1894 53.4438 25.1872 53.3442 25.2175C52.7366 25.3963 52.1753 25.6162 51.7512 25.7806C51.2559 25.9504 50.7802 26.1256 50.2332 26.3312L49.4794 26.5904C49.3672 26.6279 49.2567 26.669 49.1463 26.7101C49.0091 26.762 48.8772 26.8102 48.7471 26.8478C48.5155 26.9175 48.2892 26.9926 48.0701 27.0659C47.7921 27.1606 47.5355 27.2446 47.2487 27.3251L47.0865 27.3733C46.6375 27.5074 46.2152 27.6325 45.7751 27.7416L45.4009 27.8381L44.2998 28.0937C44.1608 28.1277 44.0183 28.1527 43.865 28.1795L43.5817 28.2314L43.375 28.2707C43.1968 28.3047 43.0365 28.3368 42.8762 28.3529H42.8565L42.1243 28.4602L41.3991 28.5335C39.4583 28.7236 37.5002 28.6285 35.5868 28.251C34.6026 28.055 33.6333 27.7898 32.6861 27.4574C31.6885 27.1112 30.7173 26.693 29.78 26.2061C29.6876 26.1581 29.5823 26.1409 29.4795 26.157C29.3766 26.173 29.2816 26.2215 29.2081 26.2954C29.1348 26.3685 29.0875 26.4637 29.0733 26.5664C29.0591 26.6691 29.0789 26.7736 29.1296 26.8639C29.4304 27.3881 29.7936 27.8737 30.2112 28.31C30.6183 28.7457 31.0579 29.1496 31.5261 29.5184C32.4765 30.2574 33.521 30.8657 34.6318 31.3274C34.826 31.4043 35.0203 31.4776 35.2163 31.5527L35.4586 31.6421H35.48C35.6742 31.7046 35.8702 31.7636 36.0662 31.8208L36.3299 31.8995H36.353L36.4546 31.9245C36.7058 31.9871 36.9642 32.0514 37.235 32.1033C37.4363 32.1408 37.6377 32.1748 37.8408 32.2087L38.1259 32.257C38.6522 32.332 39.1822 32.3785 39.7135 32.3964C40.3981 32.4211 41.0837 32.4031 41.7661 32.3428L42.6374 32.2445H42.6694L43.5247 32.0907C43.8241 32.0389 44.1092 31.9656 44.3871 31.8941L44.829 31.7779C45.0072 31.7332 45.1551 31.6885 45.2851 31.6421L45.6058 31.533C46.0596 31.3898 46.5051 31.2215 46.9404 31.0289C47.0277 30.9896 47.1186 30.9539 47.2059 30.9163C47.3841 30.8412 47.5622 30.7662 47.7511 30.6714L48.5155 30.2764C50.5596 29.1989 52.3751 27.7327 53.8609 25.9594C53.9221 25.882 53.9578 25.7875 53.9633 25.6889C53.9687 25.5903 53.9435 25.4924 53.8911 25.4088Z" fill="white"/>
<path d="M7.24899 67.2036V59.6321H4.42383V58.3109H11.512V59.6321H8.61112V67.2036H7.24899Z" fill="#586166"/>
<path d="M15.7621 67.3306C15.0306 67.3306 14.379 67.1824 13.8072 66.886C13.2439 66.5811 12.7982 66.1703 12.4703 65.6537C12.1424 65.1286 11.9784 64.5315 11.9784 63.8625C11.9784 63.1934 12.1424 62.6006 12.4703 62.0839C12.7982 61.5588 13.2439 61.1481 13.8072 60.8517C14.379 60.5468 15.0306 60.3943 15.7621 60.3943C16.4852 60.3943 17.1285 60.5468 17.6918 60.8517C18.2636 61.1481 18.7134 61.5588 19.0413 62.0839C19.3693 62.6006 19.5332 63.1934 19.5332 63.8625C19.5332 64.5315 19.3693 65.1286 19.0413 65.6537C18.7134 66.1703 18.2636 66.5811 17.6918 66.886C17.1285 67.1824 16.4852 67.3306 15.7621 67.3306ZM15.7621 66.1365C16.2246 66.1365 16.6408 66.0391 17.0107 65.8443C17.3891 65.641 17.6834 65.37 17.8936 65.0312C18.1122 64.684 18.2173 64.2944 18.2089 63.8625C18.2173 63.4221 18.1122 63.0325 17.8936 62.6937C17.6834 62.3465 17.3891 62.0755 17.0107 61.8807C16.6408 61.6859 16.2246 61.5885 15.7621 61.5885C15.2997 61.5885 14.8793 61.6901 14.5009 61.8934C14.1225 62.0882 13.824 62.355 13.6054 62.6937C13.3952 63.0325 13.2943 63.4221 13.3027 63.8625C13.2943 64.2944 13.3952 64.684 13.6054 65.0312C13.824 65.37 14.1225 65.641 14.5009 65.8443C14.8793 66.0391 15.2997 66.1365 15.7621 66.1365Z" fill="#586166"/>
<path d="M25.2337 67.3306C24.5022 67.3306 23.8505 67.1824 23.2788 66.886C22.7154 66.5811 22.2698 66.1703 21.9419 65.6537C21.614 65.1286 21.45 64.5315 21.45 63.8625C21.45 63.1934 21.614 62.6006 21.9419 62.0839C22.2698 61.5588 22.7154 61.1481 23.2788 60.8517C23.8505 60.5468 24.5022 60.3943 25.2337 60.3943C25.9568 60.3943 26.6 60.5468 27.1634 60.8517C27.7351 61.1481 28.185 61.5588 28.5129 62.0839C28.8408 62.6006 29.0048 63.1934 29.0048 63.8625C29.0048 64.5315 28.8408 65.1286 28.5129 65.6537C28.185 66.1703 27.7351 66.5811 27.1634 66.886C26.6 67.1824 25.9568 67.3306 25.2337 67.3306ZM25.2337 66.1365C25.6961 66.1365 26.1124 66.0391 26.4823 65.8443C26.8607 65.641 27.155 65.37 27.3652 65.0312C27.5838 64.684 27.6889 64.2944 27.6805 63.8625C27.6889 63.4221 27.5838 63.0325 27.3652 62.6937C27.155 62.3465 26.8607 62.0755 26.4823 61.8807C26.1124 61.6859 25.6961 61.5885 25.2337 61.5885C24.7712 61.5885 24.3508 61.6901 23.9725 61.8934C23.5941 62.0882 23.2956 62.355 23.077 62.6937C22.8668 63.0325 22.7659 63.4221 22.7743 63.8625C22.7659 64.2944 22.8668 64.684 23.077 65.0312C23.2956 65.37 23.5941 65.641 23.9725 65.8443C24.3508 66.0391 24.7712 66.1365 25.2337 66.1365Z" fill="#586166"/>
<path d="M32.4855 67.2036V58.6793H33.7846V67.2036H32.4855ZM30.8081 61.8045V60.5341H35.7269V61.8045H30.8081Z" fill="#586166"/>
<path d="M38.3032 67.2036V57.8027H39.6023V62.1093L39.2744 62.211C39.3669 61.9061 39.5518 61.6181 39.8293 61.3471C40.1068 61.0676 40.4431 60.839 40.8383 60.6611C41.2335 60.4832 41.6455 60.3943 42.0743 60.3943C42.6461 60.3943 43.1211 60.5087 43.4995 60.7373C43.8863 60.9575 44.1722 61.2751 44.3572 61.6901C44.5505 62.1051 44.6472 62.6048 44.6472 63.1892V67.2036H43.3482V63.3289C43.3482 62.9478 43.2767 62.626 43.1338 62.3634C42.9992 62.1009 42.8016 61.9018 42.541 61.7663C42.2887 61.6308 41.9902 61.5715 41.6455 61.5885C41.3512 61.5885 41.0779 61.6393 40.8257 61.7409C40.5819 61.8426 40.3674 61.9781 40.1825 62.1475C39.9975 62.3168 39.8545 62.5074 39.7536 62.7191C39.6527 62.9309 39.6023 63.1468 39.6023 63.367V67.2036H38.9591C38.8077 67.2036 38.6774 67.2036 38.5681 67.2036C38.4588 67.2036 38.3705 67.2036 38.3032 67.2036Z" fill="#586166"/>
<path d="M54.4344 67.2036V59.6321H51.6092V58.3109H58.6974V59.6321H55.7965V67.2036H54.4344Z" fill="#586166"/>
<path d="M62.4557 67.3306C61.8082 67.3306 61.2323 67.1824 60.7278 66.886C60.2233 66.5811 59.8239 66.1661 59.5296 65.641C59.2437 65.1159 59.1008 64.5188 59.1008 63.8498C59.1008 63.1807 59.2479 62.5879 59.5422 62.0712C59.8449 61.5461 60.2569 61.1354 60.7782 60.839C61.2995 60.5425 61.8923 60.3943 62.5566 60.3943C62.9602 60.3943 63.3301 60.4494 63.6664 60.5595C64.0112 60.6611 64.3097 60.8051 64.5619 60.9914C64.8142 61.1777 65.016 61.3852 65.1673 61.6139C65.3187 61.8341 65.4027 62.067 65.4196 62.3126L65.1043 62.2618V60.5341H66.4033V67.2036H65.1043V65.514L65.3817 65.5013C65.3481 65.713 65.2472 65.929 65.079 66.1492C64.9193 66.3609 64.7007 66.5557 64.4232 66.7335C64.1541 66.9114 63.8514 67.0554 63.5151 67.1655C63.1788 67.2756 62.8256 67.3306 62.4557 67.3306ZM62.7836 66.1238C63.246 66.1238 63.6538 66.0264 64.007 65.8316C64.3685 65.6368 64.6502 65.37 64.852 65.0312C65.0538 64.684 65.1547 64.2902 65.1547 63.8498C65.1547 63.4263 65.0538 63.0452 64.852 62.7064C64.6502 62.3677 64.3685 62.1009 64.007 61.9061C63.6538 61.7028 63.246 61.6012 62.7836 61.6012C62.3211 61.6012 61.9133 61.7028 61.5602 61.9061C61.207 62.1009 60.9296 62.3677 60.7278 62.7064C60.526 63.0452 60.4251 63.4263 60.4251 63.8498C60.4251 64.2902 60.526 64.684 60.7278 65.0312C60.9296 65.37 61.207 65.6368 61.5602 65.8316C61.9133 66.0264 62.3211 66.1238 62.7836 66.1238Z" fill="#586166"/>
<path d="M69.5745 67.2036V57.8027H70.8736V67.2036H69.5745Z" fill="#586166"/>
<path d="M75.2545 65.2726L75.2797 63.8498L79.0382 60.5341H80.8166L75.2545 65.2726ZM74.1572 67.2036V57.8027H75.4059V67.2036H74.1572ZM79.2274 67.2036L76.3518 63.9641L77.2473 63.1129L80.8922 67.2036H79.2274Z" fill="#586166"/>
</svg>
