<svg width="39" height="23" viewBox="0 0 39 23" fill="none" xmlns="http://www.w3.org/2000/svg">
<path d="M12.7936 2.61035H26.0566C31.1092 2.61035 35.2144 4.91159 35.2144 7.74389V15.1787C35.2144 16.5402 34.2496 17.8459 32.5322 18.8086C30.8148 19.7713 28.4854 20.3122 26.0566 20.3122H12.7936C7.74097 20.3122 3.63574 18.011 3.63574 15.1787V7.74389C3.63574 6.38239 4.60058 5.07665 6.31801 4.11393C8.03543 3.1512 10.3648 2.61035 12.7936 2.61035ZM12.4778 4.38054C10.9702 4.38054 9.52445 4.71624 8.45847 5.31379C7.39248 5.91135 6.79361 6.7218 6.79361 7.56687V15.3557C6.79361 17.117 9.3357 18.542 12.4778 18.542H26.3724C27.8799 18.542 29.3257 18.2063 30.3917 17.6088C31.4577 17.0112 32.0566 16.2008 32.0566 15.3557V7.56687C32.0566 5.80554 29.5145 4.38054 26.3724 4.38054H12.4778ZM27.7145 5.70818C28.2379 5.70818 28.74 5.82474 29.1101 6.03222C29.4802 6.23971 29.6882 6.52111 29.6882 6.81454C29.6882 7.10797 29.4802 7.38938 29.1101 7.59686C28.74 7.80434 28.2379 7.92091 27.7145 7.92091C27.1911 7.92091 26.689 7.80434 26.3189 7.59686C25.9488 7.38938 25.7408 7.10797 25.7408 6.81454C25.7408 6.52111 25.9488 6.23971 26.3189 6.03222C26.689 5.82474 27.1911 5.70818 27.7145 5.70818ZM19.4251 7.03581C21.5189 7.03581 23.5269 7.50207 25.0075 8.332C26.488 9.16194 27.3198 10.2876 27.3198 11.4613C27.3198 12.635 26.488 13.7606 25.0075 14.5906C23.5269 15.4205 21.5189 15.8867 19.4251 15.8867C17.3313 15.8867 15.3233 15.4205 13.8427 14.5906C12.3622 13.7606 11.5304 12.635 11.5304 11.4613C11.5304 10.2876 12.3622 9.16194 13.8427 8.332C15.3233 7.50207 17.3313 7.03581 19.4251 7.03581ZM19.4251 8.806C18.1688 8.806 16.964 9.08575 16.0757 9.58371C15.1873 10.0817 14.6883 10.7571 14.6883 11.4613C14.6883 12.1655 15.1873 12.8409 16.0757 13.3388C16.964 13.8368 18.1688 14.1166 19.4251 14.1166C20.6814 14.1166 21.8862 13.8368 22.7745 13.3388C23.6628 12.8409 24.1619 12.1655 24.1619 11.4613C24.1619 10.7571 23.6628 10.0817 22.7745 9.58371C21.8862 9.08575 20.6814 8.806 19.4251 8.806Z" fill="black"/>
</svg>
