<svg width="38" height="28" viewBox="0 0 38 28" fill="none" xmlns="http://www.w3.org/2000/svg">
<path d="M12.35 2.52734H25.65C30.7166 2.52734 34.8333 5.50247 34.8333 9.16416V18.7761C34.8333 20.5363 33.8658 22.2244 32.1436 23.469C30.4213 24.7137 28.0855 25.4129 25.65 25.4129H12.35C7.28329 25.4129 3.16663 22.4378 3.16663 18.7761V9.16416C3.16663 7.40397 4.13415 5.71587 5.85636 4.47122C7.57857 3.22658 9.91439 2.52734 12.35 2.52734ZM12.0333 4.8159C10.5216 4.8159 9.07174 5.24991 8.00278 6.02245C6.93383 6.79499 6.33329 7.84277 6.33329 8.93531V19.005C6.33329 21.2821 8.88246 23.1244 12.0333 23.1244H25.9666C27.4784 23.1244 28.9282 22.6904 29.9971 21.9178C31.0661 21.1453 31.6666 20.0975 31.6666 19.005V8.93531C31.6666 6.65819 29.1175 4.8159 25.9666 4.8159H12.0333ZM27.3125 6.53232C27.8374 6.53232 28.3408 6.68302 28.7119 6.95126C29.0831 7.2195 29.2916 7.58332 29.2916 7.96267C29.2916 8.34202 29.0831 8.70584 28.7119 8.97408C28.3408 9.24232 27.8374 9.39302 27.3125 9.39302C26.7875 9.39302 26.2841 9.24232 25.913 8.97408C25.5418 8.70584 25.3333 8.34202 25.3333 7.96267C25.3333 7.58332 25.5418 7.2195 25.913 6.95126C26.2841 6.68302 26.7875 6.53232 27.3125 6.53232ZM19 8.24874C21.0996 8.24874 23.1132 8.85153 24.5979 9.9245C26.0826 10.9975 26.9166 12.4527 26.9166 13.9701C26.9166 15.4875 26.0826 16.9428 24.5979 18.0158C23.1132 19.0887 21.0996 19.6915 19 19.6915C16.9003 19.6915 14.8867 19.0887 13.402 18.0158C11.9174 16.9428 11.0833 15.4875 11.0833 13.9701C11.0833 12.4527 11.9174 10.9975 13.402 9.9245C14.8867 8.85153 16.9003 8.24874 19 8.24874ZM19 10.5373C17.7402 10.5373 16.532 10.899 15.6412 11.5428C14.7504 12.1865 14.25 13.0597 14.25 13.9701C14.25 14.8806 14.7504 15.7537 15.6412 16.3975C16.532 17.0413 17.7402 17.403 19 17.403C20.2597 17.403 21.4679 17.0413 22.3587 16.3975C23.2495 15.7537 23.75 14.8806 23.75 13.9701C23.75 13.0597 23.2495 12.1865 22.3587 11.5428C21.4679 10.899 20.2597 10.5373 19 10.5373Z" fill="black"/>
</svg>
