<svg width="38" height="29" viewBox="0 0 38 29" fill="none" xmlns="http://www.w3.org/2000/svg">
<path d="M12.3498 2.42041H25.6498C30.7165 2.42041 34.8332 5.50096 34.8332 9.2924V19.2449C34.8332 21.0675 33.8656 22.8154 32.1434 24.1042C30.4212 25.3929 28.0854 26.1169 25.6498 26.1169H12.3498C7.28317 26.1169 3.1665 23.0364 3.1665 19.2449V9.2924C3.1665 7.46984 4.13403 5.72192 5.85624 4.43317C7.57845 3.14442 9.91427 2.42041 12.3498 2.42041ZM12.0332 4.79006C10.5214 4.79006 9.07162 5.23945 8.00266 6.03936C6.9337 6.83928 6.33317 7.92419 6.33317 9.05544V19.4819C6.33317 21.8397 8.88234 23.7473 12.0332 23.7473H25.9665C27.4782 23.7473 28.9281 23.2979 29.997 22.498C31.066 21.6981 31.6665 20.6132 31.6665 19.4819V9.05544C31.6665 6.69763 29.1173 4.79006 25.9665 4.79006H12.0332ZM27.3123 6.5673C27.8372 6.5673 28.3407 6.72334 28.7118 7.00109C29.083 7.27884 29.2915 7.65554 29.2915 8.04834C29.2915 8.44113 29.083 8.81784 28.7118 9.09559C28.3407 9.37333 27.8372 9.52937 27.3123 9.52937C26.7874 9.52937 26.284 9.37333 25.9129 9.09559C25.5417 8.81784 25.3332 8.44113 25.3332 8.04834C25.3332 7.65554 25.5417 7.27884 25.9129 7.00109C26.284 6.72334 26.7874 6.5673 27.3123 6.5673ZM18.9998 8.34454C21.0995 8.34454 23.1131 8.96869 24.5978 10.0797C26.0824 11.1907 26.9165 12.6975 26.9165 14.2687C26.9165 15.8399 26.0824 17.3467 24.5978 18.4577C23.1131 19.5687 21.0995 20.1928 18.9998 20.1928C16.9002 20.1928 14.8866 19.5687 13.4019 18.4577C11.9172 17.3467 11.0832 15.8399 11.0832 14.2687C11.0832 12.6975 11.9172 11.1907 13.4019 10.0797C14.8866 8.96869 16.9002 8.34454 18.9998 8.34454ZM18.9998 10.7142C17.7401 10.7142 16.5319 11.0887 15.6411 11.7553C14.7503 12.4219 14.2498 13.326 14.2498 14.2687C14.2498 15.2114 14.7503 16.1155 15.6411 16.7821C16.5319 17.4487 17.7401 17.8232 18.9998 17.8232C20.2596 17.8232 21.4678 17.4487 22.3586 16.7821C23.2494 16.1155 23.7498 15.2114 23.7498 14.2687C23.7498 13.326 23.2494 12.4219 22.3586 11.7553C21.4678 11.0887 20.2596 10.7142 18.9998 10.7142Z" fill="black"/>
</svg>
