<svg width="40" height="25" viewBox="0 0 40 25" fill="none" xmlns="http://www.w3.org/2000/svg">
<path d="M36.6933 6.65684C35.4455 6.99567 34.1005 7.21832 32.7069 7.32481C34.1329 6.81174 35.2349 5.99856 35.7534 5.0208C34.4084 5.50484 32.9176 5.84366 31.3457 6.03728C30.0655 5.20474 28.2668 4.7207 26.225 4.7207C22.4168 4.7207 19.3055 6.5794 19.3055 8.87372C19.3055 9.20287 19.3703 9.52233 19.4837 9.82243C13.7148 9.64818 8.57786 7.99278 5.15864 5.48548C4.55906 6.09536 4.21875 6.81174 4.21875 7.56683C4.21875 9.00925 5.43412 10.2871 7.31388 11.0132C6.16334 11.0132 5.09382 10.8195 4.15393 10.5291V10.5582C4.15393 12.5718 6.55225 14.2562 9.72841 14.6337C8.70868 14.8005 7.63813 14.8236 6.60087 14.7015C7.041 15.5268 7.90299 16.2489 9.06566 16.7663C10.2283 17.2838 11.6332 17.5706 13.0828 17.5864C10.6256 18.7485 7.57964 19.3766 4.44562 19.3676C3.89466 19.3676 3.34369 19.3482 2.79272 19.3095C5.87165 20.4906 9.53395 21.1779 13.4555 21.1779C26.225 21.1779 33.2417 14.8467 33.2417 9.35776C33.2417 9.17383 33.2417 8.99957 33.2255 8.81564C34.5867 8.2348 35.7534 7.49906 36.6933 6.65684Z" fill="black"/>
</svg>
