<svg width="39" height="31" viewBox="0 0 39 31" fill="none" xmlns="http://www.w3.org/2000/svg">
<path d="M36.4974 8.17352C35.2462 8.61156 33.8974 8.89942 32.4999 9.03709C33.9299 8.37377 35.0349 7.32246 35.5549 6.05839C34.2062 6.68417 32.7112 7.12221 31.1349 7.37253C29.8512 6.29619 28.0474 5.67041 25.9999 5.67041C22.1812 5.67041 19.0612 8.0734 19.0612 11.0396C19.0612 11.4651 19.1262 11.8781 19.2399 12.2661C13.4549 12.0408 8.30369 9.90067 4.87494 6.65914C4.27369 7.44762 3.93244 8.37377 3.93244 9.34998C3.93244 11.2148 5.15119 12.8669 7.03619 13.8055C5.88244 13.8055 4.80994 13.5552 3.86744 13.1797V13.2173C3.86744 15.8205 6.27244 17.9982 9.45744 18.4863C8.43487 18.7019 7.36135 18.7319 6.32119 18.5739C6.76255 19.6409 7.62694 20.5744 8.79284 21.2434C9.95875 21.9124 11.3675 22.2832 12.8212 22.3036C10.3571 23.806 7.30269 24.6181 4.15994 24.6064C3.60744 24.6064 3.05494 24.5814 2.50244 24.5313C5.58994 26.0582 9.26244 26.9468 13.1949 26.9468C25.9999 26.9468 33.0362 18.7617 33.0362 11.6654C33.0362 11.4276 33.0362 11.2023 33.0199 10.9645C34.3849 10.2136 35.5549 9.26237 36.4974 8.17352Z" fill="black"/>
</svg>
