<svg width="39" height="32" viewBox="0 0 39 32" fill="none" xmlns="http://www.w3.org/2000/svg">
<path d="M36.4974 8.16041C35.2462 8.61398 33.8974 8.91204 32.4999 9.05459C33.9299 8.36776 35.0349 7.2792 35.5549 5.97033C34.2062 6.61829 32.7112 7.07185 31.1349 7.33103C29.8512 6.21656 28.0474 5.5686 25.9999 5.5686C22.1812 5.5686 19.0612 8.05674 19.0612 11.128C19.0612 11.5686 19.1262 11.9963 19.2399 12.398C13.4549 12.1648 8.30369 9.94876 4.87494 6.59237C4.27369 7.40879 3.93244 8.36776 3.93244 9.37856C3.93244 11.3095 5.15119 13.0201 7.03619 13.992C5.88244 13.992 4.80994 13.7328 3.86744 13.344V13.3829C3.86744 16.0784 6.27244 18.3333 9.45744 18.8387C8.43487 19.0618 7.36135 19.0929 6.32119 18.9294C6.76255 20.0341 7.62694 21.0008 8.79284 21.6934C9.95875 22.3861 11.3675 22.77 12.8212 22.7912C10.3571 24.3468 7.30269 25.1877 4.15994 25.1756C3.60744 25.1756 3.05494 25.1497 2.50244 25.0979C5.58994 26.6789 9.26244 27.599 13.1949 27.599C25.9999 27.599 33.0362 19.1238 33.0362 11.776C33.0362 11.5298 33.0362 11.2965 33.0199 11.0503C34.3849 10.2727 35.5549 9.28785 36.4974 8.16041Z" fill="black"/>
</svg>
