<svg width="24" height="25" viewBox="0 0 24 25" fill="none" xmlns="http://www.w3.org/2000/svg">
<path d="M12 4.5C10.9391 4.5 9.92172 4.92143 9.17157 5.67157C8.42143 6.42172 8 7.43913 8 8.5C8 9.56087 8.42143 10.5783 9.17157 11.3284C9.92172 12.0786 10.9391 12.5 12 12.5C13.0609 12.5 14.0783 12.0786 14.8284 11.3284C15.5786 10.5783 16 9.56087 16 8.5C16 7.43913 15.5786 6.42172 14.8284 5.67157C14.0783 4.92143 13.0609 4.5 12 4.5ZM6 8.5C6 6.9087 6.63214 5.38258 7.75736 4.25736C8.88258 3.13214 10.4087 2.5 12 2.5C13.5913 2.5 15.1174 3.13214 16.2426 4.25736C17.3679 5.38258 18 6.9087 18 8.5C18 10.0913 17.3679 11.6174 16.2426 12.7426C15.1174 13.8679 13.5913 14.5 12 14.5C10.4087 14.5 8.88258 13.8679 7.75736 12.7426C6.63214 11.6174 6 10.0913 6 8.5ZM8 18.5C7.20435 18.5 6.44129 18.8161 5.87868 19.3787C5.31607 19.9413 5 20.7044 5 21.5C5 21.7652 4.89464 22.0196 4.70711 22.2071C4.51957 22.3946 4.26522 22.5 4 22.5C3.73478 22.5 3.48043 22.3946 3.29289 22.2071C3.10536 22.0196 3 21.7652 3 21.5C3 20.1739 3.52678 18.9021 4.46447 17.9645C5.40215 17.0268 6.67392 16.5 8 16.5H16C17.3261 16.5 18.5979 17.0268 19.5355 17.9645C20.4732 18.9021 21 20.1739 21 21.5C21 21.7652 20.8946 22.0196 20.7071 22.2071C20.5196 22.3946 20.2652 22.5 20 22.5C19.7348 22.5 19.4804 22.3946 19.2929 22.2071C19.1054 22.0196 19 21.7652 19 21.5C19 20.7044 18.6839 19.9413 18.1213 19.3787C17.5587 18.8161 16.7956 18.5 16 18.5H8Z" fill="white"/>
</svg>
