<svg width="31" height="32" viewBox="0 0 31 32" fill="none" xmlns="http://www.w3.org/2000/svg">
<path d="M20.021 20.6668C20.021 21.0205 20.1571 21.3596 20.3993 21.6096C20.6416 21.8597 20.9701 22.0002 21.3127 22.0002C21.6552 22.0002 21.9838 21.8597 22.226 21.6096C22.4682 21.3596 22.6043 21.0205 22.6043 20.6668C22.6043 20.3132 22.4682 19.9741 22.226 19.724C21.9838 19.474 21.6552 19.3335 21.3127 19.3335C20.9701 19.3335 20.6416 19.474 20.3993 19.724C20.1571 19.9741 20.021 20.3132 20.021 20.6668Z" stroke="black" stroke-width="2" stroke-linecap="round" stroke-linejoin="round"/>
<path d="M9.04175 9.33341C9.04175 8.62617 9.31392 7.94789 9.79839 7.4478C10.2829 6.9477 10.9399 6.66675 11.6251 6.66675C12.3102 6.66675 12.9673 6.9477 13.4518 7.4478C13.9362 7.94789 14.2084 8.62617 14.2084 9.33341V21.3334C14.2084 22.3943 14.6167 23.4117 15.3434 24.1618C16.0701 24.912 17.0557 25.3334 18.0834 25.3334C19.1111 25.3334 20.0968 24.912 20.8235 24.1618C21.5502 23.4117 21.9584 22.3943 21.9584 21.3334V20.6667M10.3334 14.6667H18.0834" stroke="black" stroke-width="2" stroke-linecap="round" stroke-linejoin="round"/>
</svg>
