<svg width="12" height="12" viewBox="0 0 12 12" fill="none" xmlns="http://www.w3.org/2000/svg">
<path fill-rule="evenodd" clip-rule="evenodd" d="M6.375 1.33325C6.375 1.12615 6.20711 0.958252 6 0.958252C5.79289 0.958252 5.625 1.12615 5.625 1.33325V5.62494H1.3335C1.12639 5.62494 0.958496 5.79283 0.958496 5.99994C0.958496 6.20705 1.12639 6.37494 1.3335 6.37494H5.625V10.6666C5.625 10.8737 5.79289 11.0416 6 11.0416C6.20711 11.0416 6.375 10.8737 6.375 10.6666V6.37494H10.6668C10.8739 6.37494 11.0418 6.20705 11.0418 5.99994C11.0418 5.79283 10.8739 5.62494 10.6668 5.62494H6.375V1.33325Z" fill="#121212"/>
</svg>
