<svg width="59" height="59" viewBox="0 0 59 59" fill="none" xmlns="http://www.w3.org/2000/svg">
<path d="M55.8181 4.47702C54.5846 4.47702 53.5796 3.47198 53.5796 2.23851C53.5796 1.00505 54.5846 0 55.8181 0C57.0516 0 58.0566 1.00505 58.0566 2.23851C58.0566 3.47959 57.0516 4.47702 55.8181 4.47702ZM58.0566 15.6315C58.0566 14.398 57.0516 13.393 55.8181 13.393C54.5846 13.393 53.5796 14.398 53.5796 15.6315C53.5796 16.865 54.5846 17.87 55.8181 17.87C57.0516 17.87 58.0566 16.8726 58.0566 15.6315ZM58.0566 29.0245C58.0566 27.791 57.0516 26.786 55.8181 26.786C54.5846 26.786 53.5796 27.791 53.5796 29.0245C53.5796 30.258 54.5846 31.263 55.8181 31.263C57.0516 31.2706 58.0566 30.2656 58.0566 29.0245ZM58.0566 42.4251C58.0566 41.1916 57.0516 40.1866 55.8181 40.1866C54.5846 40.1866 53.5796 41.1916 53.5796 42.4251C53.5796 43.6586 54.5846 44.6636 55.8181 44.6636C57.0516 44.6636 58.0566 43.6586 58.0566 42.4251ZM58.0566 55.8181C58.0566 54.5846 57.0516 53.5796 55.8181 53.5796C54.5846 53.5796 53.5796 54.5846 53.5796 55.8181C53.5796 57.0516 54.5846 58.0566 55.8181 58.0566C57.0516 58.0566 58.0566 57.0516 58.0566 55.8181ZM44.6636 2.23851C44.6636 1.00505 43.6585 0 42.4251 0C41.1916 0 40.1866 1.00505 40.1866 2.23851C40.1866 3.47198 41.1916 4.47702 42.4251 4.47702C43.6585 4.47702 44.6636 3.47959 44.6636 2.23851ZM44.6636 15.6315C44.6636 14.398 43.6585 13.393 42.4251 13.393C41.1916 13.393 40.1866 14.398 40.1866 15.6315C40.1866 16.865 41.1916 17.87 42.4251 17.87C43.6585 17.87 44.6636 16.8726 44.6636 15.6315ZM44.6636 29.0245C44.6636 27.791 43.6585 26.786 42.4251 26.786C41.1916 26.786 40.1866 27.791 40.1866 29.0245C40.1866 30.258 41.1916 31.263 42.4251 31.263C43.6585 31.2706 44.6636 30.2656 44.6636 29.0245ZM44.6636 42.4251C44.6636 41.1916 43.6585 40.1866 42.4251 40.1866C41.1916 40.1866 40.1866 41.1916 40.1866 42.4251C40.1866 43.6586 41.1916 44.6636 42.4251 44.6636C43.6585 44.6636 44.6636 43.6586 44.6636 42.4251ZM44.6636 55.8181C44.6636 54.5846 43.6585 53.5796 42.4251 53.5796C41.1916 53.5796 40.1866 54.5846 40.1866 55.8181C40.1866 57.0516 41.1916 58.0566 42.4251 58.0566C43.6585 58.0566 44.6636 57.0516 44.6636 55.8181ZM31.263 2.23851C31.263 1.00505 30.258 0 29.0245 0C27.791 0 26.786 1.00505 26.786 2.23851C26.786 3.47198 27.791 4.47702 29.0245 4.47702C30.2656 4.47702 31.263 3.47959 31.263 2.23851ZM31.263 15.6315C31.263 14.398 30.258 13.393 29.0245 13.393C27.791 13.393 26.786 14.398 26.786 15.6315C26.786 16.865 27.791 17.87 29.0245 17.87C30.2656 17.87 31.263 16.8726 31.263 15.6315ZM31.263 29.0245C31.263 27.791 30.258 26.786 29.0245 26.786C27.791 26.786 26.786 27.791 26.786 29.0245C26.786 30.258 27.791 31.263 29.0245 31.263C30.2656 31.2706 31.263 30.2656 31.263 29.0245ZM31.263 42.4251C31.263 41.1916 30.258 40.1866 29.0245 40.1866C27.791 40.1866 26.786 41.1916 26.786 42.4251C26.786 43.6586 27.791 44.6636 29.0245 44.6636C30.2656 44.6636 31.263 43.6586 31.263 42.4251ZM31.263 55.8181C31.263 54.5846 30.258 53.5796 29.0245 53.5796C27.791 53.5796 26.786 54.5846 26.786 55.8181C26.786 57.0516 27.791 58.0566 29.0245 58.0566C30.2656 58.0566 31.263 57.0516 31.263 55.8181ZM17.87 2.23851C17.87 1.00505 16.8649 0 15.6315 0C14.398 0 13.393 1.00505 13.393 2.23851C13.393 3.47198 14.398 4.47702 15.6315 4.47702C16.8726 4.47702 17.87 3.47959 17.87 2.23851ZM17.87 15.6315C17.87 14.398 16.8649 13.393 15.6315 13.393C14.398 13.393 13.393 14.398 13.393 15.6315C13.393 16.865 14.398 17.87 15.6315 17.87C16.8726 17.87 17.87 16.8726 17.87 15.6315ZM17.87 29.0245C17.87 27.791 16.8649 26.786 15.6315 26.786C14.398 26.786 13.393 27.791 13.393 29.0245C13.393 30.258 14.398 31.263 15.6315 31.263C16.8726 31.2706 17.87 30.2656 17.87 29.0245ZM17.87 42.4251C17.87 41.1916 16.8649 40.1866 15.6315 40.1866C14.398 40.1866 13.393 41.1916 13.393 42.4251C13.393 43.6586 14.398 44.6636 15.6315 44.6636C16.8726 44.6636 17.87 43.6586 17.87 42.4251ZM17.87 55.8181C17.87 54.5846 16.8649 53.5796 15.6315 53.5796C14.398 53.5796 13.393 54.5846 13.393 55.8181C13.393 57.0516 14.398 58.0566 15.6315 58.0566C16.8726 58.0566 17.87 57.0516 17.87 55.8181ZM4.47702 2.23851C4.47702 1.00505 3.47198 0 2.23851 0C1.00505 0 0 1.00505 0 2.23851C0 3.47198 1.00505 4.47702 2.23851 4.47702C3.47198 4.47702 4.47702 3.47959 4.47702 2.23851ZM4.47702 15.6315C4.47702 14.398 3.47198 13.393 2.23851 13.393C1.00505 13.393 0 14.398 0 15.6315C0 16.865 1.00505 17.87 2.23851 17.87C3.47198 17.87 4.47702 16.8726 4.47702 15.6315ZM4.47702 29.0245C4.47702 27.791 3.47198 26.786 2.23851 26.786C1.00505 26.786 0 27.791 0 29.0245C0 30.258 1.00505 31.263 2.23851 31.263C3.47198 31.263 4.47702 30.2656 4.47702 29.0245ZM4.47702 42.4251C4.47702 41.1916 3.47198 40.1866 2.23851 40.1866C1.00505 40.1866 0 41.1916 0 42.4251C0 43.6586 1.00505 44.6636 2.23851 44.6636C3.47198 44.6636 4.47702 43.6586 4.47702 42.4251ZM4.47702 55.8181C4.47702 54.5846 3.47198 53.5796 2.23851 53.5796C1.00505 53.5796 0 54.5846 0 55.8181C0 57.0516 1.00505 58.0566 2.23851 58.0566C3.47198 58.0566 4.47702 57.0516 4.47702 55.8181Z" fill="#BF52A2"/>
</svg>
