<svg width="42" height="42" viewBox="0 0 42 42" fill="none" xmlns="http://www.w3.org/2000/svg">
<path d="M39.5302 3.17061C38.6567 3.17061 37.9449 2.45884 37.9449 1.58531C37.9449 0.711771 38.6567 0 39.5302 0C40.4037 0 41.1155 0.711771 41.1155 1.58531C41.1155 2.46424 40.4037 3.17061 39.5302 3.17061ZM41.1155 11.0702C41.1155 10.1966 40.4037 9.48488 39.5302 9.48488C38.6567 9.48488 37.9449 10.1966 37.9449 11.0702C37.9449 11.9437 38.6567 12.6555 39.5302 12.6555C40.4037 12.6555 41.1155 11.9491 41.1155 11.0702ZM41.1155 20.5551C41.1155 19.6815 40.4037 18.9697 39.5302 18.9697C38.6567 18.9697 37.9449 19.6815 37.9449 20.5551C37.9449 21.4286 38.6567 22.1404 39.5302 22.1404C40.4037 22.1458 41.1155 21.434 41.1155 20.5551ZM41.1155 30.0453C41.1155 29.1718 40.4037 28.46 39.5302 28.46C38.6567 28.46 37.9449 29.1718 37.9449 30.0453C37.9449 30.9189 38.6567 31.6306 39.5302 31.6306C40.4037 31.6306 41.1155 30.9189 41.1155 30.0453ZM41.1155 39.5302C41.1155 38.6567 40.4037 37.9449 39.5302 37.9449C38.6567 37.9449 37.9449 38.6567 37.9449 39.5302C37.9449 40.4037 38.6567 41.1155 39.5302 41.1155C40.4037 41.1155 41.1155 40.4037 41.1155 39.5302ZM31.6306 1.58531C31.6306 0.711771 30.9188 0 30.0453 0C29.1718 0 28.46 0.711771 28.46 1.58531C28.46 2.45884 29.1718 3.17061 30.0453 3.17061C30.9188 3.17061 31.6306 2.46424 31.6306 1.58531ZM31.6306 11.0702C31.6306 10.1966 30.9188 9.48488 30.0453 9.48488C29.1718 9.48488 28.46 10.1966 28.46 11.0702C28.46 11.9437 29.1718 12.6555 30.0453 12.6555C30.9188 12.6555 31.6306 11.9491 31.6306 11.0702ZM31.6306 20.5551C31.6306 19.6815 30.9188 18.9697 30.0453 18.9697C29.1718 18.9697 28.46 19.6815 28.46 20.5551C28.46 21.4286 29.1718 22.1404 30.0453 22.1404C30.9188 22.1458 31.6306 21.434 31.6306 20.5551ZM31.6306 30.0453C31.6306 29.1718 30.9188 28.46 30.0453 28.46C29.1718 28.46 28.46 29.1718 28.46 30.0453C28.46 30.9189 29.1718 31.6306 30.0453 31.6306C30.9188 31.6306 31.6306 30.9189 31.6306 30.0453ZM31.6306 39.5302C31.6306 38.6567 30.9188 37.9449 30.0453 37.9449C29.1718 37.9449 28.46 38.6567 28.46 39.5302C28.46 40.4037 29.1718 41.1155 30.0453 41.1155C30.9188 41.1155 31.6306 40.4037 31.6306 39.5302ZM22.1404 1.58531C22.1404 0.711771 21.4286 0 20.5551 0C19.6815 0 18.9697 0.711771 18.9697 1.58531C18.9697 2.45884 19.6815 3.17061 20.5551 3.17061C21.434 3.17061 22.1404 2.46424 22.1404 1.58531ZM22.1404 11.0702C22.1404 10.1966 21.4286 9.48488 20.5551 9.48488C19.6815 9.48488 18.9697 10.1966 18.9697 11.0702C18.9697 11.9437 19.6815 12.6555 20.5551 12.6555C21.434 12.6555 22.1404 11.9491 22.1404 11.0702ZM22.1404 20.5551C22.1404 19.6815 21.4286 18.9697 20.5551 18.9697C19.6815 18.9697 18.9697 19.6815 18.9697 20.5551C18.9697 21.4286 19.6815 22.1404 20.5551 22.1404C21.434 22.1458 22.1404 21.434 22.1404 20.5551ZM22.1404 30.0453C22.1404 29.1718 21.4286 28.46 20.5551 28.46C19.6815 28.46 18.9697 29.1718 18.9697 30.0453C18.9697 30.9189 19.6815 31.6306 20.5551 31.6306C21.434 31.6306 22.1404 30.9189 22.1404 30.0453ZM22.1404 39.5302C22.1404 38.6567 21.4286 37.9449 20.5551 37.9449C19.6815 37.9449 18.9697 38.6567 18.9697 39.5302C18.9697 40.4037 19.6815 41.1155 20.5551 41.1155C21.434 41.1155 22.1404 40.4037 22.1404 39.5302ZM12.6555 1.58531C12.6555 0.711771 11.9437 0 11.0702 0C10.1966 0 9.48489 0.711771 9.48489 1.58531C9.48489 2.45884 10.1966 3.17061 11.0702 3.17061C11.9491 3.17061 12.6555 2.46424 12.6555 1.58531ZM12.6555 11.0702C12.6555 10.1966 11.9437 9.48488 11.0702 9.48488C10.1966 9.48488 9.48489 10.1966 9.48489 11.0702C9.48489 11.9437 10.1966 12.6555 11.0702 12.6555C11.9491 12.6555 12.6555 11.9491 12.6555 11.0702ZM12.6555 20.5551C12.6555 19.6815 11.9437 18.9697 11.0702 18.9697C10.1966 18.9697 9.48489 19.6815 9.48489 20.5551C9.48489 21.4286 10.1966 22.1404 11.0702 22.1404C11.9491 22.1458 12.6555 21.434 12.6555 20.5551ZM12.6555 30.0453C12.6555 29.1718 11.9437 28.46 11.0702 28.46C10.1966 28.46 9.48489 29.1718 9.48489 30.0453C9.48489 30.9189 10.1966 31.6306 11.0702 31.6306C11.9491 31.6306 12.6555 30.9189 12.6555 30.0453ZM12.6555 39.5302C12.6555 38.6567 11.9437 37.9449 11.0702 37.9449C10.1966 37.9449 9.48489 38.6567 9.48489 39.5302C9.48489 40.4037 10.1966 41.1155 11.0702 41.1155C11.9491 41.1155 12.6555 40.4037 12.6555 39.5302ZM3.17061 1.58531C3.17061 0.711771 2.45884 0 1.58531 0C0.711771 0 0 0.711771 0 1.58531C0 2.45884 0.711771 3.17061 1.58531 3.17061C2.45884 3.17061 3.17061 2.46424 3.17061 1.58531ZM3.17061 11.0702C3.17061 10.1966 2.45884 9.48488 1.58531 9.48488C0.711771 9.48488 0 10.1966 0 11.0702C0 11.9437 0.711771 12.6555 1.58531 12.6555C2.45884 12.6555 3.17061 11.9491 3.17061 11.0702ZM3.17061 20.5551C3.17061 19.6815 2.45884 18.9697 1.58531 18.9697C0.711771 18.9697 0 19.6815 0 20.5551C0 21.4286 0.711771 22.1404 1.58531 22.1404C2.45884 22.1404 3.17061 21.434 3.17061 20.5551ZM3.17061 30.0453C3.17061 29.1718 2.45884 28.46 1.58531 28.46C0.711771 28.46 0 29.1718 0 30.0453C0 30.9189 0.711771 31.6306 1.58531 31.6306C2.45884 31.6306 3.17061 30.9189 3.17061 30.0453ZM3.17061 39.5302C3.17061 38.6567 2.45884 37.9449 1.58531 37.9449C0.711771 37.9449 0 38.6567 0 39.5302C0 40.4037 0.711771 41.1155 1.58531 41.1155C2.45884 41.1155 3.17061 40.4037 3.17061 39.5302Z" fill="#BF52A2"/>
</svg>
